<svg preserveAspectRatio="none" width="332" height="93" viewBox="0 0 332 93" fill="none" xmlns="http://www.w3.org/2000/svg">
<path d="M329.914 32.0079C330.347 36.9767 326.969 42.5573 319.179 48.4326C311.486 54.2344 299.986 59.931 285.441 65.1696C256.378 75.6365 215.597 84.1193 170.004 88.0886C124.411 92.0579 82.7781 90.7499 52.3441 85.4628C37.112 82.8166 24.8008 79.1929 16.2212 74.8078C7.53295 70.3671 3.24123 65.4542 2.80865 60.4854C2.37607 55.5167 5.75424 49.936 13.5444 44.0608C21.2371 38.259 32.7369 32.5623 47.2825 27.3237C76.345 16.8569 117.126 8.374 162.719 4.4047C208.312 0.435405 249.945 1.74343 280.379 7.03055C295.611 9.67672 307.922 13.3004 316.502 17.6856C325.19 22.1263 329.482 27.0391 329.914 32.0079Z" stroke="#3F5EFB" stroke-width="4"/>
</svg>
